<?xml version="1.0" encoding="utf-8"?>
<!-- Generator: Adobe Illustrator 15.0.0, SVG Export Plug-In . SVG Version: 6.00 Build 0)  -->
<!DOCTYPE svg PUBLIC "-//W3C//DTD SVG 1.1//EN" "http://www.w3.org/Graphics/SVG/1.1/DTD/svg11.dtd">
<svg version="1.1" id="Layer_1" xmlns="http://www.w3.org/2000/svg" xmlns:xlink="http://www.w3.org/1999/xlink" x="0px" y="0px"
	 width="416px" height="416px" viewBox="0 0 416 416" enable-background="new 0 0 416 416" xml:space="preserve">
<symbol  id="BigBlueButton" viewBox="-207.491 -207.49 414.981 414.981">
	<g>
		<linearGradient id="SVGID_1_" gradientUnits="userSpaceOnUse" x1="-113.8594" y1="162.6079" x2="113.8594" y2="-162.6081">
			<stop  offset="0" style="stop-color:#283274"/>
			<stop  offset="0.7088" style="stop-color:#283375"/>
			<stop  offset="0.967" style="stop-color:#273F88"/>
		</linearGradient>
		<path fill="url(#SVGID_1_)" stroke="#5D6AA5" stroke-width="18" d="M198.491,0c0-109.624-88.866-198.49-198.491-198.49
			c-109.623,0-198.49,88.866-198.49,198.49c0,109.623,88.867,198.491,198.49,198.491C109.625,198.491,198.491,109.623,198.491,0z"/>
		
			<linearGradient id="SVGID_2_" gradientUnits="userSpaceOnUse" x1="-127.6743" y1="188.1196" x2="-13.394" y2="24.9104" gradientTransform="matrix(1 0 0 1 18.4946 -31.9512)">
			<stop  offset="0" style="stop-color:#BFC8E6"/>
			<stop  offset="0.0772" style="stop-color:#B6BEDD"/>
			<stop  offset="0.2039" style="stop-color:#9FA4C9"/>
			<stop  offset="0.3642" style="stop-color:#7F82AE"/>
			<stop  offset="0.5519" style="stop-color:#585C92"/>
			<stop  offset="0.7582" style="stop-color:#283375"/>
		</linearGradient>
		<path fill="url(#SVGID_2_)" d="M0.543,190.26c50.3-0.373,104.324-20.494,143.335-66.953
			c-1.66-39.852-72.986-80.704-132.511-125.68c-49.945-37.738-126.373-73.128-178.643-87.032
			c-49.698,95.152-13.55,186.622,48.772,238.038C-89.346,174.146-45.407,190.601,0.543,190.26z"/>
	</g>
	<g>
		<g>
			<path d="M107.395-49.37c0-16.763-5.9-31.045-17.694-42.839C77.9-104.01,63.625-109.903,46.862-109.903h-72.175
				c-16.764,0-31.046,5.894-42.84,17.694C-79.954-80.415-85.847-66.133-85.847-49.37v181.137c12.856,0,23.827-6.287,32.923-18.859
				c9.094-12.572,13.642-27.706,13.642-45.4V-49.37c0-9.312,4.656-13.969,13.97-13.969h72.175c9.312,0,13.969,4.656,13.969,13.969
				V6.042c0,9-4.656,13.656-13.969,13.97h-13.97c-18.007,0.626-33.221,5.326-45.633,14.107
				c-12.42,8.774-18.626,19.594-18.626,32.457h78.229c16.763,0,31.038-5.901,42.839-17.694
				c11.794-11.801,17.694-26.076,17.694-42.84V-49.37z"/>
		</g>
	</g>
	<g opacity="0.46">
		<g>
			<path fill="#FFFFFF" d="M107.395-49.37c0-16.763-5.9-31.045-17.694-42.839C77.9-104.01,63.625-109.903,46.862-109.903h-72.175
				c-16.764,0-31.046,5.894-42.84,17.694C-79.954-80.415-85.847-66.133-85.847-49.37v181.137c12.856,0,23.827-6.287,32.923-18.859
				c9.094-12.572,13.642-27.706,13.642-45.4V-49.37c0-9.312,4.656-13.969,13.97-13.969h72.175c9.312,0,13.969,4.656,13.969,13.969
				V6.042c0,9-4.656,13.656-13.969,13.97h-13.97c-18.007,0.626-33.221,5.326-45.633,14.107
				c-12.42,8.774-18.626,19.594-18.626,32.457h78.229c16.763,0,31.038-5.901,42.839-17.694
				c11.794-11.801,17.694-26.076,17.694-42.84V-49.37z"/>
		</g>
	</g>
	<g>
		<path fill="#FFFFFF" d="M103.971-51.741c0-16.763-5.9-31.045-17.694-42.839c-11.801-11.801-26.076-17.694-42.839-17.694h-72.175
			c-16.763,0-31.045,5.894-42.839,17.694c-11.801,11.794-17.694,26.076-17.694,42.839v181.136c12.856,0,23.828-6.287,32.922-18.859
			s13.642-27.706,13.642-45.4V-51.741c0-9.313,4.656-13.969,13.969-13.969h72.175c9.312,0,13.969,4.656,13.969,13.969V3.671
			c0,9-4.656,13.656-13.969,13.969h-13.97c-18.007,0.625-33.221,5.326-45.633,14.107c-12.419,8.774-18.625,19.594-18.625,32.457
			h78.229c16.763,0,31.038-5.901,42.839-17.694c11.794-11.801,17.694-26.076,17.694-42.839V-51.741z"/>
	</g>
</symbol>
<use xlink:href="#BigBlueButton"  width="414.981" height="414.981" x="-207.491" y="-207.49" transform="matrix(1 0 0 -1 208.5918 208.3076)" overflow="visible"/>
<rect id="_x3C_Slice_x3E_" x="1" fill="none" width="416" height="416"/>
</svg>
